<svg width="1000" height="215" viewBox="0 0 1000 215" fill="none" xmlns="http://www.w3.org/2000/svg">
<path d="M167.739 73.1535C167.739 85.8414 164.728 97.4389 158.705 107.946C152.883 118.255 143.948 126.581 131.903 132.925C120.057 139.071 105.502 142.144 88.2362 142.144H59.0249V212.918H0V3.27109H88.2362C105.301 3.27109 119.756 6.24481 131.601 12.1923C143.647 18.1397 152.682 26.367 158.705 36.8741C164.728 47.3813 167.739 59.4744 167.739 73.1535ZM82.5144 95.7538C99.1779 95.7538 107.51 88.2204 107.51 73.1535C107.51 57.8884 99.1779 50.2559 82.5144 50.2559H59.0249V95.7538H82.5144Z" fill="white"/>
<path d="M278.183 215C258.307 215 240.037 210.44 223.374 201.321C206.71 192.003 193.46 179.216 183.622 162.96C173.986 146.505 169.167 127.969 169.167 107.351C169.167 86.7335 173.986 68.2964 183.622 52.0401C193.46 35.5855 206.71 22.7985 223.374 13.6791C240.037 4.55971 258.307 0 278.183 0C298.259 0 316.529 4.55971 332.991 13.6791C349.655 22.7985 362.805 35.5855 372.442 52.0401C382.078 68.2964 386.897 86.7335 386.897 107.351C386.897 127.969 382.078 146.505 372.442 162.96C362.805 179.216 349.655 192.003 332.991 201.321C316.328 210.44 298.058 215 278.183 215ZM278.183 160.878C293.24 160.878 305.085 156.021 313.718 146.307C322.552 136.593 326.968 123.608 326.968 107.351C326.968 90.6985 322.552 77.6141 313.718 68.0982C305.085 58.384 293.24 53.527 278.183 53.527C262.924 53.527 250.979 58.384 242.346 68.0982C233.713 77.6141 229.397 90.6985 229.397 107.351C229.397 123.806 233.713 136.89 242.346 146.604C250.979 156.12 262.924 160.878 278.183 160.878Z" fill="white"/>
<path d="M505.883 212.918L463.722 135.602H457.398V212.918H398.373V3.27109H491.428C508.493 3.27109 522.948 6.24481 534.793 12.1923C546.638 17.9414 555.572 25.9705 561.595 36.2794C567.618 46.39 570.63 57.7893 570.63 70.4772C570.63 84.751 566.614 97.3398 558.584 108.243C550.754 118.949 539.21 126.581 523.952 131.141L571.834 212.918H505.883ZM457.398 95.7538H486.609C494.64 95.7538 500.663 93.8704 504.678 90.1037C508.694 86.337 510.701 80.8852 510.701 73.7483C510.701 67.0078 508.593 61.7543 504.377 57.9875C500.362 54.0226 494.439 52.0401 486.609 52.0401H457.398V95.7538Z" fill="white"/>
<path d="M779.064 212.918H720.039L641.439 95.7538V212.918H582.414V3.27109H641.439L720.039 121.923V3.27109H779.064V212.918Z" fill="white"/>
<path d="M930.435 212.918L889.178 153.741L853.943 212.918H786.788L855.75 105.567L784.378 3.27109H853.943L893.996 60.9613L928.327 3.27109H995.483L927.423 108.838L1000 212.918H930.435Z" fill="#FFA702"/>
</svg>
