<svg width="93" height="20" viewBox="0 0 93 20" fill="none" xmlns="http://www.w3.org/2000/svg">
<path d="M15.5997 6.80498C15.5997 7.98525 15.3197 9.06408 14.7595 10.0415C14.2181 11.0005 13.3872 11.775 12.2669 12.3651C11.1653 12.9368 9.81168 13.2227 8.20597 13.2227H5.48931V19.8064H0V0.304287H8.20597C9.79301 0.304287 11.1373 0.580912 12.2389 1.13416C13.3592 1.68741 14.1994 2.45274 14.7595 3.43015C15.3197 4.40756 15.5997 5.5325 15.5997 6.80498ZM7.67384 8.90733C9.22354 8.90733 9.9984 8.20655 9.9984 6.80498C9.9984 5.38497 9.22354 4.67496 7.67384 4.67496H5.48931V8.90733H7.67384Z" fill="#E2E2E2"/>
<path d="M25.871 20C24.0225 20 22.3235 19.5758 20.7738 18.7275C19.2241 17.8608 17.9918 16.6713 17.0769 15.1591C16.1807 13.6284 15.7326 11.9041 15.7326 9.98617C15.7326 8.06823 16.1807 6.35316 17.0769 4.84094C17.9918 3.31028 19.2241 2.12079 20.7738 1.27248C22.3235 0.424159 24.0225 0 25.871 0C27.7381 0 29.4372 0.424159 30.9682 1.27248C32.5179 2.12079 33.7409 3.31028 34.6371 4.84094C35.5333 6.35316 35.9814 8.06823 35.9814 9.98617C35.9814 11.9041 35.5333 13.6284 34.6371 15.1591C33.7409 16.6713 32.5179 17.8608 30.9682 18.7275C29.4185 19.5758 27.7194 20 25.871 20ZM25.871 14.9654C27.2713 14.9654 28.3729 14.5136 29.1758 13.61C29.9973 12.7063 30.4081 11.4984 30.4081 9.98617C30.4081 8.43707 29.9973 7.21992 29.1758 6.33472C28.3729 5.43107 27.2713 4.97925 25.871 4.97925C24.452 4.97925 23.341 5.43107 22.5382 6.33472C21.7353 7.21992 21.3339 8.43707 21.3339 9.98617C21.3339 11.5168 21.7353 12.734 22.5382 13.6376C23.341 14.5228 24.452 14.9654 25.871 14.9654Z" fill="#E2E2E2"/>
<path d="M47.0471 19.8064L43.1262 12.6141H42.538V19.8064H37.0487V0.304287H45.7028C47.2898 0.304287 48.6342 0.580912 49.7358 1.13416C50.8374 1.66897 51.6682 2.41586 52.2284 3.37483C52.7885 4.31535 53.0686 5.37575 53.0686 6.55602C53.0686 7.88382 52.6951 9.05486 51.9483 10.0692C51.2201 11.065 50.1465 11.775 48.7275 12.1992L53.1806 19.8064H47.0471ZM42.538 8.90733H45.2547C46.0015 8.90733 46.5617 8.73213 46.9351 8.38174C47.3085 8.03135 47.4952 7.5242 47.4952 6.8603C47.4952 6.23329 47.2992 5.74458 46.9071 5.39419C46.5337 5.02536 45.9829 4.84094 45.2547 4.84094H42.538V8.90733Z" fill="#E2E2E2"/>
<path d="M72.4529 19.8064H66.9636L59.6539 8.90733V19.8064H54.1645V0.304287H59.6539L66.9636 11.3416V0.304287H72.4529V19.8064Z" fill="#E2E2E2"/>
<path d="M86.5304 19.8064L82.6935 14.3015L79.4167 19.8064H73.1712L79.5848 9.82019L72.9472 0.304287H79.4167L83.1416 5.67082L86.3344 0.304287H92.5799L86.2504 10.1245L93 19.8064H86.5304Z" fill="#FFA702"/>
</svg>
