<svg width="1075" height="284" viewBox="0 0 1075 284" fill="none" xmlns="http://www.w3.org/2000/svg">
<path d="M205.739 107.154C205.739 119.841 202.728 131.439 196.705 141.946C190.883 152.255 181.948 160.581 169.903 166.925C158.057 173.071 143.502 176.144 126.236 176.144H97.0249V246.918H38V37.2711H126.236C143.301 37.2711 157.756 40.2448 169.601 46.1923C181.647 52.1397 190.682 60.367 196.705 70.8741C202.728 81.3813 205.739 93.4744 205.739 107.154ZM120.514 129.754C137.178 129.754 145.51 122.22 145.51 107.154C145.51 91.8884 137.178 84.2559 120.514 84.2559H97.0249V129.754H120.514Z" fill="white"/>
<path d="M316.183 249C296.307 249 278.037 244.44 261.374 235.321C244.71 226.003 231.46 213.216 221.622 196.96C211.986 180.505 207.167 161.969 207.167 141.351C207.167 120.734 211.986 102.296 221.622 86.0401C231.46 69.5855 244.71 56.7985 261.374 47.6791C278.037 38.5597 296.307 34 316.183 34C336.259 34 354.529 38.5597 370.991 47.6791C387.655 56.7985 400.805 69.5855 410.442 86.0401C420.078 102.296 424.897 120.734 424.897 141.351C424.897 161.969 420.078 180.505 410.442 196.96C400.805 213.216 387.655 226.003 370.991 235.321C354.328 244.44 336.058 249 316.183 249ZM316.183 194.878C331.24 194.878 343.085 190.021 351.718 180.307C360.552 170.593 364.968 157.608 364.968 141.351C364.968 124.698 360.552 111.614 351.718 102.098C343.085 92.384 331.24 87.527 316.183 87.527C300.924 87.527 288.979 92.384 280.346 102.098C271.713 111.614 267.397 124.698 267.397 141.351C267.397 157.806 271.713 170.89 280.346 180.604C288.979 190.12 300.924 194.878 316.183 194.878Z" fill="white"/>
<path d="M543.883 246.918L501.722 169.602H495.398V246.918H436.373V37.2711H529.428C546.493 37.2711 560.948 40.2448 572.793 46.1923C584.638 51.9414 593.572 59.9705 599.595 70.2794C605.618 80.39 608.63 91.7893 608.63 104.477C608.63 118.751 604.614 131.34 596.584 142.243C588.754 152.949 577.21 160.581 561.952 165.141L609.834 246.918H543.883ZM495.398 129.754H524.609C532.64 129.754 538.663 127.87 542.678 124.104C546.694 120.337 548.701 114.885 548.701 107.748C548.701 101.008 546.593 95.7543 542.377 91.9875C538.362 88.0226 532.439 86.0401 524.609 86.0401H495.398V129.754Z" fill="white"/>
<path d="M817.064 246.918H758.039L679.439 129.754V246.918H620.414V37.2711H679.439L758.039 155.923V37.2711H817.064V246.918Z" fill="white"/>
<path d="M968.435 246.918L927.178 187.741L891.943 246.918H824.788L893.75 139.567L822.378 37.2711H891.943L931.996 94.9613L966.327 37.2711H1033.48L965.423 142.838L1038 246.918H968.435Z" fill="#FFA702"/>
</svg>
